HIERARCHY
ROOT Root
{
OFFSET 0.000000 0.000000 0.000000
  CHANNELS 6 Xposition Yposition Zposition Zrotation Yrotation Xrotation
 JOINT Hips
 {
   OFFSET 0.187227 101.668648 2.986017
   CHANNELS 6 Xposition Yposition Zposition Zrotation Yrotation Xrotation
  JOINT Spine1
  {
    OFFSET 5.185611 0.480941 0.025949
    CHANNELS 3 Zrotation Yrotation Xrotation
   JOINT Spine2
   {
     OFFSET 7.290425 -0.000001 -0.000000
     CHANNELS 3 Zrotation Yrotation Xrotation
    JOINT Chest
    {
      OFFSET 7.480175 0.000001 -0.000000
      CHANNELS 3 Zrotation Yrotation Xrotation
     JOINT Neck1
     {
       OFFSET 27.156862 -0.581946 -0.197435
       CHANNELS 3 Zrotation Yrotation Xrotation
      JOINT Neck2
      {
        OFFSET 8.200202 -0.000001 -0.000000
        CHANNELS 3 Zrotation Yrotation Xrotation
       JOINT Head
       {
         OFFSET 6.850518 -0.000002 0.000000
         CHANNELS 3 Zrotation Yrotation Xrotation
        JOINT HeadEnd
        {
          OFFSET 15.974357 0.326172 -0.002222
          CHANNELS 3 Zrotation Yrotation Xrotation
        }
        JOINT Jaw
        {
          OFFSET 0.170673 3.264252 -0.001817
          CHANNELS 3 Zrotation Yrotation Xrotation
        }
        JOINT LeftEye
        {
          OFFSET 4.805113 8.357908 3.194319
          CHANNELS 3 Zrotation Yrotation Xrotation
        }
        JOINT RightEye
        {
          OFFSET 4.809319 8.371241 -3.181319
          CHANNELS 3 Zrotation Yrotation Xrotation
        }
       }
      }
     }
     JOINT LeftShoulder
     {
       OFFSET 23.348534 5.253791 1.660146
       CHANNELS 3 Zrotation Yrotation Xrotation
      JOINT LeftArm
      {
        OFFSET 19.279833 -0.000006 -0.000017
        CHANNELS 3 Zrotation Yrotation Xrotation
       JOINT LeftForeArm
       {
         OFFSET 23.427656 -0.000003 -0.000004
         CHANNELS 3 Zrotation Yrotation Xrotation
        JOINT LeftHand
        {
          OFFSET 23.191952 -0.000008 -0.000006
          CHANNELS 3 Zrotation Yrotation Xrotation
         JOINT LeftHandThumb1
         {
           OFFSET 1.972496 3.212433 0.805939
           CHANNELS 3 Zrotation Yrotation Xrotation
          JOINT LeftHandThumb2
          {
            OFFSET 4.626032 -0.000004 -0.000004
            CHANNELS 3 Zrotation Yrotation Xrotation
           JOINT LeftHandThumb3
           {
             OFFSET 2.696718 0.000000 0.000007
             CHANNELS 3 Zrotation Yrotation Xrotation
            JOINT LeftHandThumbEnd
            {
              OFFSET 3.104518 0.000004 0.000000
              CHANNELS 3 Zrotation Yrotation Xrotation
            }
           }
          }
         }
         JOINT LeftHandIndex1
         {
           OFFSET 3.038124 2.270145 0.102100
           CHANNELS 3 Zrotation Yrotation Xrotation
          JOINT LeftHandIndex2
          {
            OFFSET 6.445965 0.000000 0.000008
            CHANNELS 3 Zrotation Yrotation Xrotation
           JOINT LeftHandIndex3
           {
             OFFSET 3.494659 0.000000 0.000000
             CHANNELS 3 Zrotation Yrotation Xrotation
            JOINT LeftHandIndex4
            {
              OFFSET 2.150097 0.000000 -0.000004
              CHANNELS 3 Zrotation Yrotation Xrotation
             JOINT LeftHandIndexEnd
             {
               OFFSET 2.558216 0.000003 0.000000
               CHANNELS 3 Zrotation Yrotation Xrotation
             }
            }
           }
          }
         }
         JOINT LeftHandMiddle1
         {
           OFFSET 2.998920 0.890102 -0.414703
           CHANNELS 3 Zrotation Yrotation Xrotation
          JOINT LeftHandMiddle2
          {
            OFFSET 6.251595 0.000002 0.000000
            CHANNELS 3 Zrotation Yrotation Xrotation
           JOINT LeftHandMiddle3
           {
             OFFSET 4.182251 -0.000004 0.000008
             CHANNELS 3 Zrotation Yrotation Xrotation
            JOINT LeftHandMiddle4
            {
              OFFSET 2.848400 -0.000001 0.000004
              CHANNELS 3 Zrotation Yrotation Xrotation
             JOINT LeftHandMiddleEnd
             {
               OFFSET 2.274048 0.000002 0.000000
               CHANNELS 3 Zrotation Yrotation Xrotation
             }
            }
           }
          }
         }
         JOINT LeftHandRing1
         {
           OFFSET 2.712849 -0.383375 0.136517
           CHANNELS 3 Zrotation Yrotation Xrotation
          JOINT LeftHandRing2
          {
            OFFSET 5.960812 -0.000001 -0.000008
            CHANNELS 3 Zrotation Yrotation Xrotation
           JOINT LeftHandRing3
           {
             OFFSET 4.155865 0.000000 0.000004
             CHANNELS 3 Zrotation Yrotation Xrotation
            JOINT LeftHandRing4
            {
              OFFSET 2.507320 0.000000 0.000000
              CHANNELS 3 Zrotation Yrotation Xrotation
             JOINT LeftHandRingEnd
             {
               OFFSET 1.865696 0.000000 0.000000
               CHANNELS 3 Zrotation Yrotation Xrotation
             }
            }
           }
          }
         }
         JOINT LeftHandPinky1
         {
           OFFSET 2.675140 -1.653357 0.574287
           CHANNELS 3 Zrotation Yrotation Xrotation
          JOINT LeftHandPinky2
          {
            OFFSET 5.257679 0.000002 0.000000
            CHANNELS 3 Zrotation Yrotation Xrotation
           JOINT LeftHandPinky3
           {
             OFFSET 3.113903 0.000001 -0.000004
             CHANNELS 3 Zrotation Yrotation Xrotation
            JOINT LeftHandPinky4
            {
              OFFSET 1.752155 0.000000 0.000000
              CHANNELS 3 Zrotation Yrotation Xrotation
             JOINT LeftHandPinkyEnd
             {
               OFFSET 1.962643 -0.000001 -0.000004
               CHANNELS 3 Zrotation Yrotation Xrotation
             }
            }
           }
          }
         }
        }
       }
      }
     }
     JOINT RightShoulder
     {
       OFFSET 23.301741 5.440480 -1.424998
       CHANNELS 3 Zrotation Yrotation Xrotation
      JOINT RightArm
      {
        OFFSET -19.306400 0.000001 -0.000006
        CHANNELS 3 Zrotation Yrotation Xrotation
       JOINT RightForeArm
       {
         OFFSET -23.456160 0.000001 -0.000006
         CHANNELS 3 Zrotation Yrotation Xrotation
        JOINT RightHand
        {
          OFFSET -23.199221 0.000003 0.000002
          CHANNELS 3 Zrotation Yrotation Xrotation
         JOINT RightHandThumb1
         {
           OFFSET -1.972160 -3.212732 -0.806084
           CHANNELS 3 Zrotation Yrotation Xrotation
          JOINT RightHandThumb2
          {
            OFFSET -4.626308 0.000000 0.000007
            CHANNELS 3 Zrotation Yrotation Xrotation
           JOINT RightHandThumb3
           {
             OFFSET -2.696688 0.000000 -0.000000
             CHANNELS 3 Zrotation Yrotation Xrotation
            JOINT RightHandThumbEnd
            {
              OFFSET -3.105056 -0.000004 -0.000003
              CHANNELS 3 Zrotation Yrotation Xrotation
            }
           }
          }
         }
         JOINT RightHandIndex1
         {
           OFFSET -3.038502 -2.269806 -0.102615
           CHANNELS 3 Zrotation Yrotation Xrotation
          JOINT RightHandIndex2
          {
            OFFSET -6.445782 -0.000004 0.000008
            CHANNELS 3 Zrotation Yrotation Xrotation
           JOINT RightHandIndex3
           {
             OFFSET -3.493858 0.000000 -0.000011
             CHANNELS 3 Zrotation Yrotation Xrotation
            JOINT RightHandIndex4
            {
              OFFSET -2.149529 -0.000002 -0.000004
              CHANNELS 3 Zrotation Yrotation Xrotation
             JOINT RightHandIndexEnd
             {
               OFFSET -2.558128 -0.000001 0.000000
               CHANNELS 3 Zrotation Yrotation Xrotation
             }
            }
           }
          }
         }
         JOINT RightHandMiddle1
         {
           OFFSET -2.998993 -0.889952 0.414894
           CHANNELS 3 Zrotation Yrotation Xrotation
          JOINT RightHandMiddle2
          {
            OFFSET -6.251987 -0.000003 -0.000008
            CHANNELS 3 Zrotation Yrotation Xrotation
           JOINT RightHandMiddle3
           {
             OFFSET -4.181046 -0.000003 0.000004
             CHANNELS 3 Zrotation Yrotation Xrotation
            JOINT RightHandMiddle4
            {
              OFFSET -2.847336 0.000002 0.000000
              CHANNELS 3 Zrotation Yrotation Xrotation
             JOINT RightHandMiddleEnd
             {
               OFFSET -2.274467 -0.000001 0.000008
               CHANNELS 3 Zrotation Yrotation Xrotation
             }
            }
           }
          }
         }
         JOINT RightHandRing1
         {
           OFFSET -2.712662 0.383348 -0.135979
           CHANNELS 3 Zrotation Yrotation Xrotation
          JOINT RightHandRing2
          {
            OFFSET -5.961094 -0.000002 0.000004
            CHANNELS 3 Zrotation Yrotation Xrotation
           JOINT RightHandRing3
           {
             OFFSET -4.155010 0.000001 0.000000
             CHANNELS 3 Zrotation Yrotation Xrotation
            JOINT RightHandRing4
            {
              OFFSET -2.506302 -0.000000 -0.000008
              CHANNELS 3 Zrotation Yrotation Xrotation
             JOINT RightHandRingEnd
             {
               OFFSET -1.866306 0.000002 0.000000
               CHANNELS 3 Zrotation Yrotation Xrotation
             }
            }
           }
          }
         }
         JOINT RightHandPinky1
         {
           OFFSET -2.674698 1.653210 -0.574352
           CHANNELS 3 Zrotation Yrotation Xrotation
          JOINT RightHandPinky2
          {
            OFFSET -5.257671 -0.000001 0.000004
            CHANNELS 3 Zrotation Yrotation Xrotation
           JOINT RightHandPinky3
           {
             OFFSET -3.113091 -0.000001 0.000000
             CHANNELS 3 Zrotation Yrotation Xrotation
            JOINT RightHandPinky4
            {
              OFFSET -1.752007 0.000002 -0.000008
              CHANNELS 3 Zrotation Yrotation Xrotation
             JOINT RightHandPinkyEnd
             {
               OFFSET -1.963306 0.000000 0.000004
               CHANNELS 3 Zrotation Yrotation Xrotation
             }
            }
           }
          }
         }
        }
       }
      }
     }
    }
   }
  }
  JOINT LeftLeg
  {
    OFFSET -8.889949 2.513977 10.026885
    CHANNELS 3 Zrotation Yrotation Xrotation
   JOINT LeftShin
   {
     OFFSET 43.208843 0.000003 0.000000
     CHANNELS 3 Zrotation Yrotation Xrotation
    JOINT LeftFoot
    {
      OFFSET 45.578201 -0.000003 -0.000004
      CHANNELS 3 Zrotation Yrotation Xrotation
     JOINT LeftToeBase
     {
       OFFSET 16.212999 0.000000 0.000000
       CHANNELS 3 Zrotation Yrotation Xrotation
      JOINT LeftToeEnd
      {
        OFFSET 7.750711 -0.135288 0.000000
        CHANNELS 3 Zrotation Yrotation Xrotation
      }
     }
    }
   }
  }
  JOINT RightLeg
  {
    OFFSET -8.806253 2.771246 -9.963077
    CHANNELS 3 Zrotation Yrotation Xrotation
   JOINT RightShin
   {
     OFFSET -43.239971 -0.000000 0.000001
     CHANNELS 3 Zrotation Yrotation Xrotation
    JOINT RightFoot
    {
      OFFSET -45.578156 -0.000000 -0.000003
      CHANNELS 3 Zrotation Yrotation Xrotation
     JOINT RightToeBase
     {
       OFFSET -16.208389 0.000003 0.000002
       CHANNELS 3 Zrotation Yrotation Xrotation
      JOINT RightToeEnd
      {
        OFFSET -7.754828 0.135361 0.000002
        CHANNELS 3 Zrotation Yrotation Xrotation
      }
     }
    }
   }
  }
 }
}
MOTION
Frames: 4
Frame Time: 0.008333
0.000000 0.000000 0.000000 0.000000 0.000000 0.000000 0.187227 101.668648 2.986017 89.609078 -4.607639 -96.454384 5.664985 0.611503 1.032659 5.206982 -0.581345 -0.301547 2.149556 -1.410030 -2.407071 11.201483 1.286572 2.080145 -6.202231 1.765399 -0.777455 -12.854032 -0.661535 16.561810 0.000000 0.000000 0.000000 0.000000 0.000000 0.000000 0.000000 0.000000 0.000000 0.000000 0.000000 0.000000 -107.906030 -61.824081 108.307502 56.314979 -72.762691 1.850936 10.904652 -0.231073 -0.196988 0.261513 6.372624 -6.945842 28.126116 -25.557656 50.290953 -17.715232 -16.513267 34.776931 0.000000 -25.538733 0.000000 0.000000 0.000000 0.000000 -0.658380 -0.225259 -3.112784 -4.579095 -16.242734 -0.789354 0.000000 -19.779147 0.000000 -7.063425 -18.085624 -4.518332 0.000000 0.000000 0.000000 -10.653335 -2.302934 -2.159360 13.699383 -23.587298 -1.405480 0.000000 -27.504436 0.000000 -3.675020 -23.768379 -3.876290 0.000000 0.000000 0.000000 -14.894677 -5.059497 -0.151217 21.162563 -21.035633 -3.116382 0.000000 -32.748650 0.000000 -0.399775 -19.648636 2.173004 0.000000 0.000000 0.000000 -18.446696 -16.045550 -0.883540 25.199499 -16.335262 0.966872 0.000000 -24.120000 0.000000 -4.054054 -19.395545 -5.878699 0.000000 0.000000 0.000000 53.833841 -65.835965 123.002481 44.568501 -71.229316 13.884508 11.840825 -0.266564 -0.291340 -3.145528 -3.297861 -9.280974 28.126116 -25.557656 50.290953 -17.715232 -16.513267 34.776931 0.000000 -25.538733 0.000000 0.000000 0.000000 0.000000 -0.658380 -0.225259 -3.112784 -4.579095 -16.242734 -0.789354 0.000000 -19.779147 0.000000 -7.063425 -18.085624 -4.518332 0.000000 0.000000 0.000000 -10.653335 -2.302934 -2.159360 13.699383 -23.587298 -1.405480 0.000000 -27.504436 0.000000 -3.675020 -23.768379 -3.876290 0.000000 0.000000 0.000000 -14.894677 -5.059497 -0.151217 21.162563 -21.035633 -3.116382 0.000000 -32.748650 0.000000 -0.399775 -19.648636 2.173004 0.000000 0.000000 0.000000 -18.446696 -16.045550 -0.883540 25.199499 -16.335262 0.966872 0.000000 -24.120000 0.000000 -4.054054 -19.395545 -5.878699 0.000000 0.000000 0.000000 -169.114132 1.881595 -7.429429 0.076216 0.000096 0.000000 -85.342222 -0.175481 -0.282099 -2.140466 -0.056936 5.565670 0.000000 0.000000 0.000000 6.920798 2.243331 -6.802592 4.412608 0.000141 0.000000 -87.425609 0.453909 1.675745 -1.704762 -0.067965 5.567876 0.000000 0.000000 0.000000
0.000000 0.000000 0.000000 0.000000 0.000000 0.000000 0.192055 101.671616 2.998996 89.610876 -4.615201 -96.454236 5.669791 0.606944 1.032347 5.210948 -0.573261 -0.302890 2.148233 -1.410990 -2.406288 11.202520 1.286900 2.079755 -6.200737 1.766586 -0.778029 -12.858761 -0.670677 16.560055 0.000000 0.000000 0.000000 0.000000 0.000000 0.000000 0.000000 0.000000 0.000000 0.000000 0.000000 0.000000 -107.905090 -61.827891 108.307194 56.316714 -72.759171 1.833173 10.898997 -0.230969 -0.196866 0.254933 6.387079 -6.974510 28.126116 -25.557656 50.290953 -17.715232 -16.513267 34.776931 0.000000 -25.538733 0.000000 0.000000 0.000000 0.000000 -0.658380 -0.225259 -3.112784 -4.579095 -16.242734 -0.789354 0.000000 -19.779147 0.000000 -7.063425 -18.085624 -4.518332 0.000000 0.000000 0.000000 -10.653335 -2.302934 -2.159360 13.699383 -23.587298 -1.405480 0.000000 -27.504436 0.000000 -3.675020 -23.768379 -3.876290 0.000000 0.000000 0.000000 -14.894677 -5.059497 -0.151217 21.162563 -21.035633 -3.116382 0.000000 -32.748650 0.000000 -0.399775 -19.648636 2.173004 0.000000 0.000000 0.000000 -18.446696 -16.045550 -0.883540 25.199499 -16.335262 0.966872 0.000000 -24.120000 0.000000 -4.054054 -19.395545 -5.878699 0.000000 0.000000 0.000000 53.803044 -65.854013 122.999929 44.424169 -71.257967 13.962191 11.867629 -0.266787 -0.291966 -3.192107 -3.299117 -9.284217 28.126116 -25.557656 50.290953 -17.715232 -16.513267 34.776931 0.000000 -25.538733 0.000000 0.000000 0.000000 0.000000 -0.658380 -0.225259 -3.112784 -4.579095 -16.242734 -0.789354 0.000000 -19.779147 0.000000 -7.063425 -18.085624 -4.518332 0.000000 0.000000 0.000000 -10.653335 -2.302934 -2.159360 13.699383 -23.587298 -1.405480 0.000000 -27.504436 0.000000 -3.675020 -23.768379 -3.876290 0.000000 0.000000 0.000000 -14.894677 -5.059497 -0.151217 21.162563 -21.035633 -3.116382 0.000000 -32.748650 0.000000 -0.399775 -19.648636 2.173004 0.000000 0.000000 0.000000 -18.446696 -16.045550 -0.883540 25.199499 -16.335262 0.966872 0.000000 -24.120000 0.000000 -4.054054 -19.395545 -5.878699 0.000000 0.000000 0.000000 -169.099662 1.875768 -7.407138 0.050590 -0.000224 0.000000 -85.334049 -0.193305 -0.306520 -2.133764 -0.057048 5.565675 0.000000 0.000000 0.000000 6.920187 2.250501 -6.798081 4.419134 -0.000100 0.000000 -87.433911 0.450773 1.684233 -1.684363 -0.068314 5.567883 0.000000 0.000000 0.000000
0.000000 0.000000 0.000000 0.000000 0.000000 0.000000 0.199468 101.674675 3.008142 89.611958 -4.623458 -96.453743 5.676153 0.602206 1.031977 5.214103 -0.564713 -0.303740 2.146630 -1.411862 -2.405448 11.204258 1.287141 2.079497 -6.199756 1.767930 -0.778500 -12.864366 -0.680619 16.557577 0.000000 0.000000 0.000000 0.000000 0.000000 0.000000 0.000000 0.000000 0.000000 0.000000 0.000000 0.000000 -107.904960 -61.832113 108.307336 56.318556 -72.755823 1.816445 10.892812 -0.231221 -0.196829 0.247183 6.403423 -7.006479 28.126116 -25.557656 50.290953 -17.715232 -16.513267 34.776931 0.000000 -25.538733 0.000000 0.000000 0.000000 0.000000 -0.658380 -0.225259 -3.112784 -4.579095 -16.242734 -0.789354 0.000000 -19.779147 0.000000 -7.063425 -18.085624 -4.518332 0.000000 0.000000 0.000000 -10.653335 -2.302934 -2.159360 13.699383 -23.587298 -1.405480 0.000000 -27.504436 0.000000 -3.675020 -23.768379 -3.876290 0.000000 0.000000 0.000000 -14.894677 -5.059497 -0.151217 21.162563 -21.035633 -3.116382 0.000000 -32.748650 0.000000 -0.399775 -19.648636 2.173004 0.000000 0.000000 0.000000 -18.446696 -16.045550 -0.883540 25.199499 -16.335262 0.966872 0.000000 -24.120000 0.000000 -4.054054 -19.395545 -5.878699 0.000000 0.000000 0.000000 53.773732 -65.872758 122.992840 44.269297 -71.288631 14.047546 11.896308 -0.266863 -0.292639 -3.242807 -3.299765 -9.288133 28.126116 -25.557656 50.290953 -17.715232 -16.513267 34.776931 0.000000 -25.538733 0.000000 0.000000 0.000000 0.000000 -0.658380 -0.225259 -3.112784 -4.579095 -16.242734 -0.789354 0.000000 -19.779147 0.000000 -7.063425 -18.085624 -4.518332 0.000000 0.000000 0.000000 -10.653335 -2.302934 -2.159360 13.699383 -23.587298 -1.405480 0.000000 -27.504436 0.000000 -3.675020 -23.768379 -3.876290 0.000000 0.000000 0.000000 -14.894677 -5.059497 -0.151217 21.162563 -21.035633 -3.116382 0.000000 -32.748650 0.000000 -0.399775 -19.648636 2.173004 0.000000 0.000000 0.000000 -18.446696 -16.045550 -0.883540 25.199499 -16.335262 0.966872 0.000000 -24.120000 0.000000 -4.054054 -19.395545 -5.878699 0.000000 0.000000 0.000000 -169.110086 1.865726 -7.384902 0.078580 -0.000150 0.000000 -85.355130 -0.211327 -0.334152 -2.124469 -0.057206 5.565681 0.000000 0.000000 0.000000 6.925376 2.258006 -6.793876 4.420837 0.000225 0.000000 -87.443721 0.447965 1.693528 -1.660571 -0.068758 5.567897 0.000000 0.000000 0.000000
0.000000 0.000000 0.000000 0.000000 0.000000 0.000000 0.209388 101.676689 3.014336 89.613630 -4.630350 -96.454001 5.679407 0.597769 1.031719 5.218876 -0.557087 -0.305593 2.145575 -1.412853 -2.404714 11.205817 1.287400 2.078985 -6.199140 1.769235 -0.779254 -12.868047 -0.689247 16.556591 0.000000 0.000000 0.000000 0.000000 0.000000 0.000000 0.000000 0.000000 0.000000 0.000000 0.000000 0.000000 -107.903300 -61.835496 108.306704 56.320060 -72.752051 1.797553 10.888054 -0.231158 -0.196740 0.241687 6.416075 -7.031502 28.126116 -25.557656 50.290953 -17.715232 -16.513267 34.776931 0.000000 -25.538733 0.000000 0.000000 0.000000 0.000000 -0.658380 -0.225259 -3.112784 -4.579095 -16.242734 -0.789354 0.000000 -19.779147 0.000000 -7.063425 -18.085624 -4.518332 0.000000 0.000000 0.000000 -10.653335 -2.302934 -2.159360 13.699383 -23.587298 -1.405480 0.000000 -27.504436 0.000000 -3.675020 -23.768379 -3.876290 0.000000 0.000000 0.000000 -14.894677 -5.059497 -0.151217 21.162563 -21.035633 -3.116382 0.000000 -32.748650 0.000000 -0.399775 -19.648636 2.173004 0.000000 0.000000 0.000000 -18.446696 -16.045550 -0.883540 25.199499 -16.335262 0.966872 0.000000 -24.120000 0.000000 -4.054054 -19.395545 -5.878699 0.000000 0.000000 0.000000 53.745181 -65.891197 122.990688 44.134081 -71.315382 14.118966 11.921383 -0.266931 -0.293208 -3.285310 -3.301688 -9.290677 28.126116 -25.557656 50.290953 -17.715232 -16.513267 34.776931 0.000000 -25.538733 0.000000 0.000000 0.000000 0.000000 -0.658380 -0.225259 -3.112784 -4.579095 -16.242734 -0.789354 0.000000 -19.779147 0.000000 -7.063425 -18.085624 -4.518332 0.000000 0.000000 0.000000 -10.653335 -2.302934 -2.159360 13.699383 -23.587298 -1.405480 0.000000 -27.504436 0.000000 -3.675020 -23.768379 -3.876290 0.000000 0.000000 0.000000 -14.894677 -5.059497 -0.151217 21.162563 -21.035633 -3.116382 0.000000 -32.748650 0.000000 -0.399775 -19.648636 2.173004 0.000000 0.000000 0.000000 -18.446696 -16.045550 -0.883540 25.199499 -16.335262 0.966872 0.000000 -24.120000 0.000000 -4.054054 -19.395545 -5.878699 0.000000 0.000000 0.000000 -169.106118 1.859438 -7.363682 0.069592 -0.000709 0.000000 -85.352138 -0.229036 -0.355329 -2.120370 -0.057282 5.565684 0.000000 0.000000 0.000000 6.923806 2.264634 -6.788906 4.427979 0.000000 0.000000 -87.450999 0.444598 1.701157 -1.643468 -0.069037 5.567905 0.000000 0.000000 0.000000
